<?xml version="1.0" encoding="UTF-8" ?>
<svg version="1.1" width="194" height="64" xmlns="http://www.w3.org/2000/svg" shape-rendering="crispEdges">
<rect x="58" y="17" width="24" height="1" fill="#7ABFA7" />
<rect x="107" y="17" width="8" height="1" fill="#7ABFA7" />
<rect x="26" y="18" width="1" height="1" fill="#725B37" />
<rect x="27" y="18" width="4" height="1" fill="#7E653D" />
<rect x="31" y="18" width="3" height="1" fill="#725B37" />
<rect x="34" y="18" width="4" height="1" fill="#7E653D" />
<rect x="58" y="18" width="1" height="7" fill="#7ABFA7" />
<rect x="59" y="18" width="22" height="1" fill="#5E9481" />
<rect x="81" y="18" width="1" height="7" fill="#7ABFA7" />
<rect x="107" y="18" width="1" height="32" fill="#7ABFA7" />
<rect x="108" y="18" width="6" height="1" fill="#5E9481" />
<rect x="114" y="18" width="1" height="32" fill="#7ABFA7" />
<rect x="22" y="19" width="2" height="1" fill="#725B37" />
<rect x="24" y="19" width="2" height="1" fill="#7E653D" />
<rect x="26" y="19" width="12" height="1" fill="#D1A25D" />
<rect x="38" y="19" width="4" height="1" fill="#7E653D" />
<rect x="59" y="19" width="1" height="5" fill="#5E9481" />
<rect x="60" y="19" width="20" height="4" fill="#FFFFFF" />
<rect x="80" y="19" width="1" height="5" fill="#5E9481" />
<rect x="108" y="19" width="1" height="5" fill="#5E9481" />
<rect x="109" y="19" width="4" height="4" fill="#FFFFFF" />
<rect x="113" y="19" width="1" height="5" fill="#5E9481" />
<rect x="20" y="20" width="1" height="1" fill="#725B37" />
<rect x="21" y="20" width="1" height="1" fill="#7E653D" />
<rect x="22" y="20" width="3" height="1" fill="#C19556" />
<rect x="25" y="20" width="1" height="1" fill="#D1A25D" />
<rect x="26" y="20" width="3" height="1" fill="#C99B59" />
<rect x="29" y="20" width="6" height="1" fill="#81CAB1" />
<rect x="35" y="20" width="3" height="1" fill="#C99B59" />
<rect x="38" y="20" width="3" height="1" fill="#D1A25D" />
<rect x="41" y="20" width="1" height="2" fill="#C19556" />
<rect x="42" y="20" width="2" height="1" fill="#7E653D" />
<rect x="18" y="21" width="1" height="1" fill="#725B37" />
<rect x="19" y="21" width="1" height="1" fill="#7E653D" />
<rect x="20" y="21" width="2" height="1" fill="#C19556" />
<rect x="22" y="21" width="1" height="1" fill="#B78D51" />
<rect x="23" y="21" width="4" height="1" fill="#C99B59" />
<rect x="27" y="21" width="2" height="1" fill="#86D2B7" />
<rect x="29" y="21" width="6" height="1" fill="#7CC2A9" />
<rect x="35" y="21" width="2" height="1" fill="#86D2B7" />
<rect x="37" y="21" width="3" height="1" fill="#C99B59" />
<rect x="40" y="21" width="1" height="1" fill="#B78D51" />
<rect x="42" y="21" width="2" height="1" fill="#C19556" />
<rect x="44" y="21" width="1" height="1" fill="#725B37" />
<rect x="45" y="21" width="1" height="1" fill="#7E653D" />
<rect x="17" y="22" width="1" height="1" fill="#7E653D" />
<rect x="18" y="22" width="1" height="1" fill="#9E753A" />
<rect x="19" y="22" width="1" height="1" fill="#A97D3E" />
<rect x="20" y="22" width="2" height="1" fill="#C4934F" />
<rect x="22" y="22" width="1" height="1" fill="#BD8E4C" />
<rect x="23" y="22" width="1" height="1" fill="#B78D51" />
<rect x="24" y="22" width="3" height="1" fill="#C19556" />
<rect x="27" y="22" width="2" height="1" fill="#558474" />
<rect x="29" y="22" width="6" height="1" fill="#86D2B7" />
<rect x="35" y="22" width="2" height="1" fill="#558474" />
<rect x="37" y="22" width="1" height="1" fill="#B78D51" />
<rect x="38" y="22" width="3" height="1" fill="#C19556" />
<rect x="41" y="22" width="1" height="1" fill="#BD8E4C" />
<rect x="42" y="22" width="2" height="1" fill="#C4934F" />
<rect x="44" y="22" width="2" height="1" fill="#9E753A" />
<rect x="46" y="22" width="1" height="1" fill="#725B37" />
<rect x="17" y="23" width="1" height="1" fill="#725B37" />
<rect x="18" y="23" width="1" height="1" fill="#A4793C" />
<rect x="19" y="23" width="1" height="1" fill="#9E753A" />
<rect x="20" y="23" width="2" height="1" fill="#A97D3E" />
<rect x="22" y="23" width="1" height="1" fill="#A4793C" />
<rect x="23" y="23" width="2" height="1" fill="#BD8E4C" />
<rect x="25" y="23" width="2" height="1" fill="#C4934F" />
<rect x="27" y="23" width="2" height="1" fill="#C19556" />
<rect x="29" y="23" width="6" height="1" fill="#558474" />
<rect x="35" y="23" width="2" height="1" fill="#B78D51" />
<rect x="37" y="23" width="1" height="1" fill="#BD8E4C" />
<rect x="38" y="23" width="3" height="1" fill="#C4934F" />
<rect x="41" y="23" width="2" height="2" fill="#A97D3E" />
<rect x="43" y="23" width="1" height="1" fill="#9E753A" />
<rect x="44" y="23" width="1" height="1" fill="#A97D3E" />
<rect x="45" y="23" width="1" height="1" fill="#A4793C" />
<rect x="46" y="23" width="1" height="1" fill="#7E653D" />
<rect x="60" y="23" width="8" height="1" fill="#5E9481" />
<rect x="68" y="23" width="4" height="25" fill="#FFFFFF" />
<rect x="72" y="23" width="8" height="1" fill="#5E9481" />
<rect x="109" y="23" width="4" height="1" fill="#5E9481" />
<rect x="18" y="24" width="2" height="1" fill="#7E653D" />
<rect x="20" y="24" width="1" height="1" fill="#A97D3E" />
<rect x="21" y="24" width="1" height="1" fill="#9E753A" />
<rect x="22" y="24" width="5" height="1" fill="#A97D3E" />
<rect x="27" y="24" width="2" height="1" fill="#BD8E4C" />
<rect x="29" y="24" width="4" height="1" fill="#C19556" />
<rect x="33" y="24" width="2" height="1" fill="#BD8E4C" />
<rect x="35" y="24" width="2" height="1" fill="#C4934F" />
<rect x="37" y="24" width="1" height="2" fill="#A97D3E" />
<rect x="38" y="24" width="1" height="1" fill="#9E753A" />
<rect x="39" y="24" width="2" height="1" fill="#A97D3E" />
<rect x="43" y="24" width="1" height="1" fill="#A4793C" />
<rect x="44" y="24" width="2" height="1" fill="#7E653D" />
<rect x="59" y="24" width="8" height="1" fill="#7ABFA7" />
<rect x="67" y="24" width="1" height="25" fill="#5E9481" />
<rect x="72" y="24" width="1" height="25" fill="#5E9481" />
<rect x="73" y="24" width="8" height="1" fill="#7ABFA7" />
<rect x="108" y="24" width="6" height="2" fill="#7ABFA7" />
<rect x="20" y="25" width="2" height="1" fill="#7E653D" />
<rect x="22" y="25" width="3" height="1" fill="#A4793C" />
<rect x="25" y="25" width="2" height="1" fill="#9E753A" />
<rect x="27" y="25" width="1" height="1" fill="#A4793C" />
<rect x="28" y="25" width="2" height="1" fill="#A97D3E" />
<rect x="30" y="25" width="2" height="1" fill="#9E753A" />
<rect x="32" y="25" width="2" height="1" fill="#A97D3E" />
<rect x="34" y="25" width="1" height="1" fill="#A4793C" />
<rect x="35" y="25" width="2" height="1" fill="#A97D3E" />
<rect x="38" y="25" width="1" height="1" fill="#A97D3E" />
<rect x="39" y="25" width="2" height="1" fill="#A4793C" />
<rect x="41" y="25" width="1" height="1" fill="#9E753A" />
<rect x="42" y="25" width="2" height="1" fill="#725B37" />
<rect x="66" y="25" width="1" height="25" fill="#7ABFA7" />
<rect x="73" y="25" width="1" height="25" fill="#7ABFA7" />
<rect x="82" y="25" width="8" height="1" fill="#7ABFA7" />
<rect x="99" y="25" width="8" height="1" fill="#7ABFA7" />
<rect x="115" y="25" width="21" height="1" fill="#7ABFA7" />
<rect x="144" y="25" width="17" height="1" fill="#7ABFA7" />
<rect x="22" y="26" width="2" height="1" fill="#725B37" />
<rect x="24" y="26" width="1" height="1" fill="#7E653D" />
<rect x="25" y="26" width="1" height="1" fill="#725B37" />
<rect x="26" y="26" width="2" height="1" fill="#9E753A" />
<rect x="28" y="26" width="3" height="1" fill="#A4793C" />
<rect x="31" y="26" width="1" height="1" fill="#A97D3E" />
<rect x="32" y="26" width="3" height="1" fill="#9E753A" />
<rect x="35" y="26" width="1" height="1" fill="#A4793C" />
<rect x="36" y="26" width="2" height="1" fill="#9E753A" />
<rect x="38" y="26" width="1" height="1" fill="#725B37" />
<rect x="39" y="26" width="3" height="1" fill="#7E653D" />
<rect x="82" y="26" width="1" height="20" fill="#7ABFA7" />
<rect x="83" y="26" width="6" height="1" fill="#5E9481" />
<rect x="89" y="26" width="1" height="17" fill="#7ABFA7" />
<rect x="99" y="26" width="1" height="17" fill="#7ABFA7" />
<rect x="100" y="26" width="6" height="1" fill="#5E9481" />
<rect x="106" y="26" width="1" height="24" fill="#7ABFA7" />
<rect x="108" y="26" width="6" height="1" fill="#5E9481" />
<rect x="115" y="26" width="1" height="24" fill="#7ABFA7" />
<rect x="116" y="26" width="19" height="1" fill="#5E9481" />
<rect x="135" y="26" width="1" height="4" fill="#7ABFA7" />
<rect x="144" y="26" width="1" height="4" fill="#7ABFA7" />
<rect x="145" y="26" width="15" height="1" fill="#5E9481" />
<rect x="160" y="26" width="1" height="4" fill="#7ABFA7" />
<rect x="23" y="27" width="1" height="1" fill="#3F6156" />
<rect x="24" y="27" width="2" height="1" fill="#7ABFA7" />
<rect x="26" y="27" width="1" height="1" fill="#7E653D" />
<rect x="27" y="27" width="1" height="1" fill="#725B37" />
<rect x="28" y="27" width="3" height="1" fill="#7E653D" />
<rect x="31" y="27" width="4" height="1" fill="#725B37" />
<rect x="35" y="27" width="3" height="1" fill="#7E653D" />
<rect x="38" y="27" width="1" height="1" fill="#7ABFA7" />
<rect x="39" y="27" width="1" height="1" fill="#86D2B7" />
<rect x="40" y="27" width="1" height="1" fill="#497163" />
<rect x="83" y="27" width="1" height="18" fill="#5E9481" />
<rect x="84" y="27" width="4" height="17" fill="#FFFFFF" />
<rect x="88" y="27" width="1" height="17" fill="#5E9481" />
<rect x="100" y="27" width="1" height="17" fill="#5E9481" />
<rect x="101" y="27" width="4" height="21" fill="#FFFFFF" />
<rect x="105" y="27" width="1" height="22" fill="#5E9481" />
<rect x="108" y="27" width="1" height="22" fill="#5E9481" />
<rect x="109" y="27" width="4" height="21" fill="#FFFFFF" />
<rect x="113" y="27" width="1" height="22" fill="#5E9481" />
<rect x="116" y="27" width="1" height="22" fill="#5E9481" />
<rect x="117" y="27" width="17" height="4" fill="#FFFFFF" />
<rect x="134" y="27" width="1" height="4" fill="#5E9481" />
<rect x="145" y="27" width="1" height="4" fill="#5E9481" />
<rect x="146" y="27" width="13" height="4" fill="#FFFFFF" />
<rect x="159" y="27" width="1" height="4" fill="#5E9481" />
<rect x="23" y="28" width="1" height="2" fill="#497163" />
<rect x="24" y="28" width="1" height="1" fill="#81CAB1" />
<rect x="25" y="28" width="1" height="1" fill="#86D2B7" />
<rect x="26" y="28" width="1" height="1" fill="#81CAB1" />
<rect x="27" y="28" width="1" height="1" fill="#86D2B7" />
<rect x="28" y="28" width="6" height="1" fill="#7ABFA7" />
<rect x="34" y="28" width="1" height="1" fill="#86D2B7" />
<rect x="35" y="28" width="1" height="1" fill="#81CAB1" />
<rect x="36" y="28" width="2" height="1" fill="#86D2B7" />
<rect x="38" y="28" width="1" height="1" fill="#81CAB1" />
<rect x="39" y="28" width="1" height="1" fill="#5E9481" />
<rect x="40" y="28" width="1" height="1" fill="#3F6156" />
<rect x="24" y="29" width="4" height="1" fill="#5E9481" />
<rect x="28" y="29" width="4" height="1" fill="#86D2B7" />
<rect x="32" y="29" width="2" height="1" fill="#81CAB1" />
<rect x="34" y="29" width="5" height="1" fill="#5E9481" />
<rect x="39" y="29" width="1" height="1" fill="#558474" />
<rect x="40" y="29" width="1" height="1" fill="#497163" />
<rect x="136" y="29" width="8" height="1" fill="#7ABFA7" />
<rect x="161" y="29" width="4" height="1" fill="#7ABFA7" />
<rect x="23" y="30" width="1" height="2" fill="#558474" />
<rect x="24" y="30" width="2" height="1" fill="#3F6156" />
<rect x="26" y="30" width="2" height="1" fill="#558474" />
<rect x="28" y="30" width="6" height="1" fill="#5E9481" />
<rect x="34" y="30" width="2" height="1" fill="#558474" />
<rect x="36" y="30" width="2" height="1" fill="#3F6156" />
<rect x="38" y="30" width="1" height="1" fill="#558474" />
<rect x="39" y="30" width="1" height="1" fill="#7ABFA7" />
<rect x="40" y="30" width="1" height="2" fill="#558474" />
<rect x="135" y="30" width="4" height="1" fill="#5E9481" />
<rect x="139" y="30" width="2" height="16" fill="#7ABFA7" />
<rect x="141" y="30" width="4" height="1" fill="#5E9481" />
<rect x="160" y="30" width="4" height="1" fill="#5E9481" />
<rect x="164" y="30" width="1" height="11" fill="#7ABFA7" />
<rect x="24" y="31" width="3" height="1" fill="#7ABFA7" />
<rect x="27" y="31" width="1" height="1" fill="#86D2B7" />
<rect x="28" y="31" width="6" height="1" fill="#558474" />
<rect x="34" y="31" width="3" height="1" fill="#7ABFA7" />
<rect x="37" y="31" width="2" height="1" fill="#81CAB1" />
<rect x="39" y="31" width="1" height="1" fill="#5E9481" />
<rect x="117" y="31" width="4" height="17" fill="#FFFFFF" />
<rect x="121" y="31" width="13" height="1" fill="#5E9481" />
<rect x="134" y="31" width="4" height="17" fill="#FFFFFF" />
<rect x="138" y="31" width="1" height="18" fill="#5E9481" />
<rect x="141" y="31" width="1" height="14" fill="#5E9481" />
<rect x="142" y="31" width="4" height="13" fill="#FFFFFF" />
<rect x="146" y="31" width="13" height="1" fill="#5E9481" />
<rect x="159" y="31" width="4" height="8" fill="#FFFFFF" />
<rect x="163" y="31" width="1" height="9" fill="#5E9481" />
<rect x="23" y="32" width="1" height="1" fill="#497163" />
<rect x="24" y="32" width="2" height="1" fill="#81CAB1" />
<rect x="26" y="32" width="7" height="1" fill="#7ABFA7" />
<rect x="33" y="32" width="1" height="1" fill="#86D2B7" />
<rect x="34" y="32" width="3" height="1" fill="#81CAB1" />
<rect x="37" y="32" width="2" height="1" fill="#5E9481" />
<rect x="39" y="32" width="1" height="1" fill="#558474" />
<rect x="40" y="32" width="1" height="1" fill="#497163" />
<rect x="121" y="32" width="1" height="17" fill="#5E9481" />
<rect x="122" y="32" width="11" height="1" fill="#7ABFA7" />
<rect x="133" y="32" width="1" height="17" fill="#5E9481" />
<rect x="146" y="32" width="1" height="3" fill="#5E9481" />
<rect x="147" y="32" width="11" height="2" fill="#7ABFA7" />
<rect x="158" y="32" width="1" height="3" fill="#5E9481" />
<rect x="23" y="33" width="1" height="1" fill="#3F6156" />
<rect x="24" y="33" width="2" height="1" fill="#5E9481" />
<rect x="26" y="33" width="1" height="1" fill="#86D2B7" />
<rect x="27" y="33" width="7" height="1" fill="#81CAB1" />
<rect x="34" y="33" width="3" height="1" fill="#5E9481" />
<rect x="37" y="33" width="1" height="1" fill="#3F6156" />
<rect x="38" y="33" width="1" height="1" fill="#558474" />
<rect x="39" y="33" width="1" height="1" fill="#7ABFA7" />
<rect x="40" y="33" width="1" height="1" fill="#3F6156" />
<rect x="122" y="33" width="1" height="17" fill="#7ABFA7" />
<rect x="132" y="33" width="1" height="17" fill="#7ABFA7" />
<rect x="23" y="34" width="1" height="2" fill="#497163" />
<rect x="24" y="34" width="2" height="1" fill="#558474" />
<rect x="26" y="34" width="8" height="1" fill="#5E9481" />
<rect x="34" y="34" width="2" height="1" fill="#558474" />
<rect x="36" y="34" width="1" height="1" fill="#3F6156" />
<rect x="37" y="34" width="1" height="1" fill="#7ABFA7" />
<rect x="38" y="34" width="2" height="1" fill="#81CAB1" />
<rect x="40" y="34" width="1" height="1" fill="#497163" />
<rect x="91" y="34" width="8" height="1" fill="#7ABFA7" />
<rect x="147" y="34" width="11" height="1" fill="#5E9481" />
<rect x="24" y="35" width="2" height="1" fill="#7ABFA7" />
<rect x="26" y="35" width="2" height="1" fill="#558474" />
<rect x="28" y="35" width="2" height="1" fill="#3F6156" />
<rect x="30" y="35" width="4" height="1" fill="#558474" />
<rect x="34" y="35" width="2" height="1" fill="#7ABFA7" />
<rect x="36" y="35" width="2" height="1" fill="#86D2B7" />
<rect x="38" y="35" width="2" height="1" fill="#5E9481" />
<rect x="40" y="35" width="1" height="4" fill="#558474" />
<rect x="91" y="35" width="1" height="8" fill="#7ABFA7" />
<rect x="92" y="35" width="6" height="1" fill="#5E9481" />
<rect x="98" y="35" width="1" height="8" fill="#7ABFA7" />
<rect x="146" y="35" width="13" height="4" fill="#FFFFFF" />
<rect x="23" y="36" width="1" height="3" fill="#558474" />
<rect x="24" y="36" width="2" height="1" fill="#86D2B7" />
<rect x="26" y="36" width="3" height="1" fill="#7ABFA7" />
<rect x="29" y="36" width="1" height="1" fill="#86D2B7" />
<rect x="30" y="36" width="5" height="1" fill="#7ABFA7" />
<rect x="35" y="36" width="2" height="1" fill="#81CAB1" />
<rect x="37" y="36" width="1" height="1" fill="#5E9481" />
<rect x="38" y="36" width="2" height="1" fill="#558474" />
<rect x="92" y="36" width="1" height="8" fill="#5E9481" />
<rect x="93" y="36" width="4" height="12" fill="#FFFFFF" />
<rect x="97" y="36" width="1" height="8" fill="#5E9481" />
<rect x="24" y="37" width="1" height="2" fill="#558474" />
<rect x="25" y="37" width="1" height="1" fill="#5E9481" />
<rect x="26" y="37" width="6" height="1" fill="#81CAB1" />
<rect x="32" y="37" width="3" height="1" fill="#86D2B7" />
<rect x="35" y="37" width="2" height="1" fill="#5E9481" />
<rect x="37" y="37" width="1" height="1" fill="#558474" />
<rect x="38" y="37" width="2" height="2" fill="#7ABFA7" />
<rect x="25" y="38" width="2" height="1" fill="#558474" />
<rect x="27" y="38" width="8" height="1" fill="#5E9481" />
<rect x="35" y="38" width="2" height="1" fill="#558474" />
<rect x="37" y="38" width="1" height="1" fill="#86D2B7" />
<rect x="23" y="39" width="1" height="1" fill="#497163" />
<rect x="24" y="39" width="1" height="1" fill="#81CAB1" />
<rect x="25" y="39" width="1" height="1" fill="#86D2B7" />
<rect x="26" y="39" width="2" height="1" fill="#3F6156" />
<rect x="28" y="39" width="5" height="1" fill="#558474" />
<rect x="33" y="39" width="2" height="1" fill="#3F6156" />
<rect x="35" y="39" width="3" height="1" fill="#7ABFA7" />
<rect x="38" y="39" width="2" height="1" fill="#81CAB1" />
<rect x="40" y="39" width="1" height="2" fill="#497163" />
<rect x="146" y="39" width="17" height="1" fill="#5E9481" />
<rect x="23" y="40" width="1" height="1" fill="#3F6156" />
<rect x="24" y="40" width="2" height="1" fill="#5E9481" />
<rect x="26" y="40" width="3" height="1" fill="#81CAB1" />
<rect x="29" y="40" width="2" height="1" fill="#7ABFA7" />
<rect x="31" y="40" width="1" height="1" fill="#86D2B7" />
<rect x="32" y="40" width="3" height="1" fill="#7ABFA7" />
<rect x="35" y="40" width="3" height="1" fill="#86D2B7" />
<rect x="38" y="40" width="2" height="2" fill="#5E9481" />
<rect x="146" y="40" width="1" height="4" fill="#5E9481" />
<rect x="147" y="40" width="17" height="1" fill="#7ABFA7" />
<rect x="20" y="41" width="1" height="1" fill="#665131" />
<rect x="21" y="41" width="1" height="1" fill="#7E653D" />
<rect x="22" y="41" width="1" height="1" fill="#725B37" />
<rect x="23" y="41" width="1" height="1" fill="#497163" />
<rect x="24" y="41" width="1" height="1" fill="#578978" />
<rect x="25" y="41" width="4" height="1" fill="#5E9481" />
<rect x="29" y="41" width="1" height="1" fill="#86D2B7" />
<rect x="30" y="41" width="3" height="1" fill="#81CAB1" />
<rect x="33" y="41" width="1" height="1" fill="#86D2B7" />
<rect x="34" y="41" width="1" height="1" fill="#81CAB1" />
<rect x="35" y="41" width="3" height="1" fill="#5E9481" />
<rect x="40" y="41" width="1" height="1" fill="#3F6156" />
<rect x="41" y="41" width="3" height="1" fill="#7E653D" />
<rect x="147" y="41" width="1" height="2" fill="#7ABFA7" />
<rect x="18" y="42" width="1" height="1" fill="#7E653D" />
<rect x="19" y="42" width="1" height="1" fill="#725B37" />
<rect x="20" y="42" width="3" height="1" fill="#C19556" />
<rect x="23" y="42" width="2" height="1" fill="#C99B59" />
<rect x="25" y="42" width="2" height="1" fill="#578978" />
<rect x="27" y="42" width="1" height="1" fill="#558474" />
<rect x="28" y="42" width="8" height="1" fill="#5E9481" />
<rect x="36" y="42" width="1" height="1" fill="#3F6156" />
<rect x="37" y="42" width="2" height="1" fill="#578978" />
<rect x="39" y="42" width="3" height="1" fill="#C99B59" />
<rect x="42" y="42" width="2" height="1" fill="#C19556" />
<rect x="44" y="42" width="1" height="1" fill="#725B37" />
<rect x="45" y="42" width="1" height="1" fill="#665131" />
<rect x="90" y="42" width="1" height="1" fill="#7ABFA7" />
<rect x="148" y="42" width="17" height="1" fill="#7ABFA7" />
<rect x="17" y="43" width="1" height="2" fill="#665131" />
<rect x="18" y="43" width="1" height="2" fill="#9E753A" />
<rect x="19" y="43" width="1" height="1" fill="#A97D3E" />
<rect x="20" y="43" width="1" height="1" fill="#9E753A" />
<rect x="21" y="43" width="2" height="1" fill="#C4934F" />
<rect x="23" y="43" width="1" height="1" fill="#BD8E4C" />
<rect x="24" y="43" width="3" height="1" fill="#C19556" />
<rect x="27" y="43" width="1" height="2" fill="#C99B59" />
<rect x="28" y="43" width="2" height="1" fill="#3F6156" />
<rect x="30" y="43" width="3" height="1" fill="#578978" />
<rect x="33" y="43" width="2" height="1" fill="#558474" />
<rect x="35" y="43" width="1" height="1" fill="#3F6156" />
<rect x="36" y="43" width="2" height="1" fill="#C99B59" />
<rect x="38" y="43" width="2" height="1" fill="#C19556" />
<rect x="40" y="43" width="2" height="1" fill="#BD8E4C" />
<rect x="42" y="43" width="2" height="1" fill="#C4934F" />
<rect x="44" y="43" width="1" height="1" fill="#A97D3E" />
<rect x="45" y="43" width="1" height="1" fill="#9E753A" />
<rect x="46" y="43" width="1" height="1" fill="#725B37" />
<rect x="89" y="43" width="3" height="1" fill="#5E9481" />
<rect x="98" y="43" width="2" height="1" fill="#5E9481" />
<rect x="147" y="43" width="17" height="1" fill="#5E9481" />
<rect x="164" y="43" width="1" height="7" fill="#7ABFA7" />
<rect x="19" y="44" width="2" height="1" fill="#A4793C" />
<rect x="21" y="44" width="4" height="1" fill="#A97D3E" />
<rect x="25" y="44" width="1" height="1" fill="#BD8E4C" />
<rect x="26" y="44" width="1" height="1" fill="#C4934F" />
<rect x="28" y="44" width="1" height="1" fill="#C99B59" />
<rect x="29" y="44" width="5" height="1" fill="#C19556" />
<rect x="34" y="44" width="3" height="1" fill="#C99B59" />
<rect x="37" y="44" width="1" height="1" fill="#BD8E4C" />
<rect x="38" y="44" width="1" height="1" fill="#C4934F" />
<rect x="39" y="44" width="4" height="1" fill="#9E753A" />
<rect x="43" y="44" width="1" height="1" fill="#A97D3E" />
<rect x="44" y="44" width="1" height="1" fill="#A4793C" />
<rect x="45" y="44" width="1" height="1" fill="#A97D3E" />
<rect x="46" y="44" width="1" height="1" fill="#7E653D" />
<rect x="84" y="44" width="4" height="1" fill="#5E9481" />
<rect x="88" y="44" width="5" height="4" fill="#FFFFFF" />
<rect x="97" y="44" width="4" height="4" fill="#FFFFFF" />
<rect x="142" y="44" width="4" height="1" fill="#5E9481" />
<rect x="146" y="44" width="17" height="4" fill="#FFFFFF" />
<rect x="163" y="44" width="1" height="5" fill="#5E9481" />
<rect x="18" y="45" width="2" height="1" fill="#7E653D" />
<rect x="20" y="45" width="3" height="1" fill="#9E753A" />
<rect x="23" y="45" width="1" height="1" fill="#A97D3E" />
<rect x="24" y="45" width="3" height="1" fill="#A4793C" />
<rect x="27" y="45" width="3" height="1" fill="#A97D3E" />
<rect x="30" y="45" width="3" height="1" fill="#9E753A" />
<rect x="33" y="45" width="7" height="1" fill="#A97D3E" />
<rect x="40" y="45" width="1" height="1" fill="#A4793C" />
<rect x="41" y="45" width="1" height="1" fill="#A97D3E" />
<rect x="42" y="45" width="1" height="1" fill="#A4793C" />
<rect x="43" y="45" width="1" height="1" fill="#9E753A" />
<rect x="44" y="45" width="1" height="1" fill="#7E653D" />
<rect x="45" y="45" width="1" height="1" fill="#665131" />
<rect x="83" y="45" width="4" height="1" fill="#7ABFA7" />
<rect x="87" y="45" width="1" height="4" fill="#5E9481" />
<rect x="141" y="45" width="4" height="1" fill="#7ABFA7" />
<rect x="145" y="45" width="1" height="4" fill="#5E9481" />
<rect x="20" y="46" width="2" height="1" fill="#665131" />
<rect x="22" y="46" width="3" height="1" fill="#725B37" />
<rect x="25" y="46" width="4" height="1" fill="#9E753A" />
<rect x="29" y="46" width="4" height="1" fill="#A4793C" />
<rect x="33" y="46" width="1" height="1" fill="#A97D3E" />
<rect x="34" y="46" width="1" height="1" fill="#A4793C" />
<rect x="35" y="46" width="3" height="1" fill="#9E753A" />
<rect x="38" y="46" width="1" height="1" fill="#A4793C" />
<rect x="39" y="46" width="1" height="1" fill="#725B37" />
<rect x="40" y="46" width="3" height="1" fill="#665131" />
<rect x="43" y="46" width="1" height="1" fill="#7E653D" />
<rect x="86" y="46" width="1" height="4" fill="#7ABFA7" />
<rect x="139" y="46" width="1" height="4" fill="#7ABFA7" />
<rect x="144" y="46" width="1" height="4" fill="#7ABFA7" />
<rect x="25" y="47" width="3" height="1" fill="#665131" />
<rect x="28" y="47" width="3" height="1" fill="#7E653D" />
<rect x="31" y="47" width="3" height="1" fill="#725B37" />
<rect x="34" y="47" width="3" height="1" fill="#665131" />
<rect x="37" y="47" width="2" height="1" fill="#7E653D" />
<rect x="68" y="48" width="4" height="1" fill="#5E9481" />
<rect x="88" y="48" width="17" height="1" fill="#5E9481" />
<rect x="109" y="48" width="4" height="1" fill="#5E9481" />
<rect x="117" y="48" width="4" height="1" fill="#5E9481" />
<rect x="134" y="48" width="4" height="1" fill="#5E9481" />
<rect x="146" y="48" width="17" height="1" fill="#5E9481" />
<rect x="67" y="49" width="6" height="1" fill="#7ABFA7" />
<rect x="87" y="49" width="19" height="1" fill="#7ABFA7" />
<rect x="108" y="49" width="6" height="1" fill="#7ABFA7" />
<rect x="116" y="49" width="6" height="1" fill="#7ABFA7" />
<rect x="133" y="49" width="6" height="1" fill="#7ABFA7" />
<rect x="145" y="49" width="19" height="1" fill="#7ABFA7" />
</svg>